<svg xmlns="http://www.w3.org/2000/svg" width="1024" height="1024" viewBox="0 0 1024 1024">
  <rect width="1024" height="1024" fill="#071a3d"/>
  <path d="M116 744L178 252H554L512 350H286L270 482H510L468 580H256L236 744Z" fill="#f5c542"/>
  <path d="M570 424C488 424 424 445 378 488C336 527 315 577 315 638C315 710 344 764 403 800C449 828 510 842 586 842C650 842 708 834 760 818L792 688H612L596 750C580 754 563 756 544 756C469 756 432 724 432 660C432 618 448 583 480 556C510 531 552 518 606 518H770L812 424Z" fill="#f5c542"/>
  <path d="M564 148H778L894 264V650H812V318H716V230H564Z" fill="none" stroke="#f5c542" stroke-width="40" stroke-linejoin="round"/>
  <path d="M650 338H852M650 414H852M650 490H852" stroke="#f5c542" stroke-width="32" stroke-linecap="round"/>
  <circle cx="808" cy="752" r="116" fill="#f5c542"/>
  <circle cx="808" cy="752" r="82" fill="#071a3d"/>
  <path d="M833 696C819 687 798 684 781 691C761 699 752 717 758 735C764 754 783 759 802 764C822 770 831 774 831 786C831 798 819 805 802 805C786 805 770 800 758 792L744 826C758 835 778 841 798 842V868H824V839C851 833 868 813 868 786C868 758 850 747 820 738C799 732 792 728 792 718C792 710 800 704 814 704C828 704 840 708 849 714Z" fill="#f5c542"/>
</svg>
