<svg xmlns="http://www.w3.org/2000/svg" width="1024" height="1024" viewBox="0 0 1024 1024">
  <defs>
    <linearGradient id="bg" x1="0" y1="0" x2="1" y2="1">
      <stop offset="0" stop-color="#09265a"/>
      <stop offset="1" stop-color="#061633"/>
    </linearGradient>
    <linearGradient id="gold" x1="0" y1="0" x2="1" y2="1">
      <stop offset="0" stop-color="#ffe76b"/>
      <stop offset="0.5" stop-color="#f7c62f"/>
      <stop offset="1" stop-color="#b97808"/>
    </linearGradient>
    <filter id="shadow" x="-20%" y="-20%" width="140%" height="140%">
      <feDropShadow dx="0" dy="18" stdDeviation="14" flood-color="#000000" flood-opacity="0.38"/>
    </filter>
  </defs>

  <rect x="32" y="32" width="960" height="960" rx="210" fill="url(#bg)"/>

  <g filter="url(#shadow)">
    <path d="M560 150h220l118 118v392h-86V323h-95V228H560z" fill="none" stroke="url(#gold)" stroke-width="42" stroke-linejoin="round"/>
    <path d="M640 330h220M640 404h220M640 478h220" stroke="url(#gold)" stroke-width="34" stroke-linecap="round"/>
    <path d="M690 560h76" stroke="url(#gold)" stroke-width="34" stroke-linecap="round"/>
    <rect x="800" y="536" width="70" height="70" rx="16" fill="url(#gold)"/>
  </g>

  <g filter="url(#shadow)">
    <path d="M108 742L170 242h378l-44 104H280l-18 142h242l-42 104H250l-22 112z" fill="url(#gold)"/>
    <path d="M560 430c-86 0-154 22-203 66-43 40-65 90-65 150 0 70 29 123 87 159 46 29 107 43 184 43 65 0 126-8 182-24l33-132H596l-16 62c-13 3-29 4-48 4-78 0-117-31-117-92 0-39 15-72 44-99 30-27 71-41 123-41h170l42-96z" fill="url(#gold)"/>
  </g>

  <g filter="url(#shadow)">
    <circle cx="806" cy="742" r="112" fill="url(#gold)"/>
    <circle cx="806" cy="742" r="82" fill="#06204a"/>
    <text x="806" y="786" text-anchor="middle" font-family="Arial Black, Arial, sans-serif" font-size="112" font-weight="900" fill="url(#gold)">$</text>
  </g>
</svg>
